PathFileType	4	(X/Y/Z)	T00_JumpTrial_0-2667.trc
DataRate	CameraRate	NumFrames	NumMarkers	Units	OrigDataRate	OrigDataStartFrame	OrigNumFrames
30	30	6	21	m	30	1666	2667
Frame#	Time	RHip			RKnee			RAnkle			RBigToe			RSmallToe			RHeel			LHip			LKnee			LAnkle			LBigToe			LSmallToe			LHeel			Neck			Head			Nose			RShoulder			RElbow			RWrist			LShoulder			LElbow			LWrist		
		X1	Y1	Z1	X2	Y2	Z2	X3	Y3	Z3	X4	Y4	Z4	X5	Y5	Z5	X6	Y6	Z6	X7	Y7	Z7	X8	Y8	Z8	X9	Y9	Z9	X10	Y10	Z10	X11	Y11	Z11	X12	Y12	Z12	X13	Y13	Z13	X14	Y14	Z14	X15	Y15	Z15	X16	Y16	Z16	X17	Y17	Z17	X18	Y18	Z18	X19	Y19	Z19	X20	Y20	Z20	X21	Y21	Z21
1667	55.56666666666667	-4.455456870998535	0.9455028710146594	-0.057849897197952915	-4.160349142920322	1.8731270095758463	-0.1428186980086821	-4.119647222418904	2.6498419635055743	-0.11554648330393645	-4.357256673588352	3.129991154462309	-0.2981315592772844	-4.321254602318227	3.0382339953330066	-0.38459035050141505	-4.1331214970140815	2.696063823114733	-0.0301299254517625	-4.8210646402215875	1.011562111463513	0.5271772309769014	-4.696690832794703	1.9626861340439237	0.9369379588141565	-4.272267042595743	2.653561629205071	1.3321182477597526	-4.501372755617042	3.1300931247057724	1.4048313041671676	-4.415941085888063	3.002286574025028	1.515729608937499	-4.032249385935086	2.595405055297528	1.3489998751623686	-4.9560506124254555	-0.7029442694311693	0.11900101921152943	-5.309445346269813	-1.3420734461616326	0.06435701477474283	-5.5145973151843135	-0.8674414235977209	-0.04388172942599427	-4.555003588912437	-0.5600359520475194	-0.27583748914540224	-4.207875919518533	-0.09204674156905479	-0.622909784912904	-3.7300279662806513	0.21396871061313533	-1.0021808637082263	-5.28636260815948	-0.44548848917089656	0.5406541193299274	-5.32092286118737	0.22054139291090302	1.008198038713134	-5.285690108527433	0.748791707409156	1.46173763499906
1668	55.6	-4.489428559382012	0.9707278679419165	-0.013432896229313101	-4.149960238567367	1.8714622539656913	-0.12265013737272364	-4.14341396126043	2.670274737431696	-0.11715772165386834	-4.350479791159012	3.127115583456269	-0.2955108475690257	-4.306121615105711	3.0273523924195045	-0.37917869758926426	-4.159189269113636	2.719015399815435	-0.032638664384628584	-4.861910213880567	1.035730072293639	0.5785386564140389	-4.692053144803927	1.9721708313430033	0.9885141171878673	-4.185792683078193	2.618235626540052	1.377398207508803	-4.533133572485944	3.1663574718307275	1.4428031056055142	-4.405839613970074	3.0172226140284044	1.553605445467438	-3.9745173948707917	2.5618008451083303	1.3981031959306225	-4.9508919652838586	-0.6946647993836867	0.17387675546820255	-5.365292946872244	-1.3266725198154767	0.11087963220324677	-5.513514777561236	-0.8594425103950722	0.013484208387010274	-4.585921329653681	-0.5441974885022756	-0.2281933756451893	-4.245454351650544	-0.08278106983260096	-0.5740966442719029	-3.8118457742746847	0.23934774846863735	-0.9716098007234262	-5.296606649159296	-0.42909708898926174	0.5999912910607045	-5.325273997367967	0.23838445888010418	1.0707695943066422	-5.26248154674572	0.7543770797283947	1.5252842190711395
1669	55.63333333333333	-4.560074999591091	1.0132989072896892	0.033581040406100535	-4.165094774759394	1.878650349410611	-0.09873425419789034	-4.159348846797826	2.686657295244317	-0.1163291754369748	-4.330221938958354	3.113099405419996	-0.29161462474182015	-4.2871825035703655	3.0126030121268452	-0.37436916980368484	-4.177178232308573	2.7355896080179822	-0.031806871498539606	-4.916288935787538	1.0719946691544602	0.6389925302543433	-4.690618323304877	1.9899366493825006	1.0379557072916903	-4.089525734299325	2.5783486260841113	1.4103852556139898	-4.571814253320011	3.204971623407708	1.4646947963911268	-4.422124532511053	3.050074534389639	1.5818211327591813	-3.900503155050564	2.5294589335482174	1.432117802119138	-4.952979196046371	-0.681126630123291	0.23695082229819475	-5.37498131513931	-1.313856893246252	0.17118468707004902	-5.57667345039221	-0.8362868279336397	0.06960459773154992	-4.626997753223747	-0.5290835039243493	-0.1727504043108279	-4.26031621643625	-0.07336603250972822	-0.5210310332401437	-3.902321831393527	0.2690853809296879	-0.9404150272027005	-5.3051253754446535	-0.4118429803905103	0.6673817827749867	-5.32884258537009	0.2558695188497778	1.1402246917620729	-5.244918095253215	0.7604667274132719	1.5938032944631053
1670	55.66666666666666	-4.6536614067954725	1.0599460030668788	0.0838026197126156	-4.228989360350561	1.9101108241318026	-0.0743881256024636	-4.173903972206644	2.7010643276334187	-0.11504670906635368	-4.311523284638259	3.0982323824298437	-0.289374617017876	-4.2678835425291215	2.998129464416763	-0.3719874967255151	-4.185548099750135	2.7377054914672687	-0.027270333469477277	-4.975784226195434	1.1138502583083894	0.710270510753467	-4.701422946333271	2.0207062123060524	1.091581993577583	-4.052823462771446	2.5721293999327886	1.4315541592348435	-4.598370358998081	3.2340523230242666	1.4751829724727294	-4.466398036029993	3.096607906539037	1.6020837261161263	-3.815281377086109	2.499583366497892	1.4495897417079302	-4.9905820257856055	-0.6604587422725526	0.3054900673747293	-5.369708160204398	-1.3027095478776964	0.24013298067711125	-5.660279907179111	-0.8082501613142856	0.1305915959328876	-4.679048935475747	-0.512080589541072	-0.11003492150765116	-4.288237225801588	-0.05416576032489846	-0.46840982471216364	-3.9780786533992134	0.2956480829146637	-0.9010766979367599	-5.324653956993538	-0.39617467754207075	0.739933534911666	-5.343574907753775	0.27197425787184887	1.2141495858244764	-5.235019459521877	0.7706809372930905	1.6662194683440126
1671	55.7	-4.716853854907681	1.0872479647957372	0.14560994317313788	-4.312433907681549	1.9527995793679582	-0.04617983485957419	-4.187170117008487	2.7124892941921885	-0.11556433976298748	-4.312187492548451	3.0958624969556667	-0.29040421844966025	-4.2579536427830735	2.990705037769911	-0.37209656258886425	-4.186188309532616	2.7225303920745985	-0.021631613460181595	-5.020521547711942	1.1462163498959546	0.7897308000857269	-4.718576166862452	2.0626094195252422	1.152837845728501	-4.0805743057801696	2.6042027060685444	1.4444886529641747	-4.606659458252679	3.251277057665814	1.4801066323619274	-4.510577304471804	3.138324233596106	1.6153067521255873	-3.7562579451302636	2.487429138283053	1.4544034777606714	-5.0582231122739945	-0.6379860660694571	0.3773357094743295	-5.397620047854882	-1.2897622560615685	0.31103333768868224	-5.724430162957752	-0.786306098720663	0.2025608883620975	-4.746131491862643	-0.49081385271990985	-0.042187229299611245	-4.36574963406634	-0.018667765042250675	-0.4193309608473325	-4.033110379904885	0.3161379137256124	-0.8510095537068812	-5.3579139606529385	-0.382657429516478	0.8163320615286489	-5.355206504907631	0.2847143625748111	1.291017401622465	-5.224716959616088	0.7830357856298329	1.7422109416264606
1672	55.73333333333333	-4.734488178630216	1.088379466271404	0.22390243553081282	-4.362321788694099	1.973515587818066	-0.0044449946158689885	-4.193664114552042	2.715522602466384	-0.1177466398509544	-4.328403497302457	3.105313900393448	-0.29272726520274484	-4.254447035527762	2.987528762715061	-0.3721541308003291	-4.180181241031208	2.697588633838208	-0.018905201250565946	-5.035650934303777	1.1577401089537724	0.8731762556929094	-4.712432331282781	2.0975803145911684	1.215741494404728	-4.1164875441018	2.6407325771627947	1.4514221133011205	-4.6057599146917	3.2620391886189704	1.4834224801988727	-4.529923145025193	3.1600788138233242	1.6218736558331142	-3.7443176619922296	2.4976263347991643	1.4515268358035083	-5.125347862963345	-0.6203557714313275	0.4508468599415874	-5.4757315626070895	-1.2739298228072204	0.3816852907723711	-5.7845338189073665	-0.7701111871979052	0.28167459577489645	-4.812617556058854	-0.46928550590011564	0.028406019419220704	-4.481286626018581	0.025126215231399733	-0.371027277940154	-4.081335652551426	0.33584257181789656	-0.796669758701664	-5.408083922677791	-0.3681911119011336	0.8961896711667546	-5.3523485337889	0.29307828335447844	1.3690723697660256	-5.220199557047529	0.7947481795173357	1.8207132075435295
